<?xml version="1.0" standalone="no"?>
<!DOCTYPE svg PUBLIC "-//W3C//DTD SVG 20010904//EN"
 "http://www.w3.org/TR/2001/REC-SVG-20010904/DTD/svg10.dtd">
<svg version="1.0" xmlns="http://www.w3.org/2000/svg"
 width="370.000000pt" height="370.000000pt" viewBox="0 0 370.000000 370.000000"
 preserveAspectRatio="xMidYMid meet">
<metadata>
Created by potrace 1.11, written by Peter Selinger 2001-2013
</metadata>
<g transform="translate(0.000000,370.000000) scale(0.100000,-0.100000)"
fill="#000000" stroke="none">
<path d="M1593 3224 c-18 -9 -31 -20 -28 -24 3 -5 26 -18 51 -30 71 -35 80
-55 64 -153 -14 -90 -34 -152 -59 -181 -28 -32 -68 -46 -218 -75 -82 -16 -143
-30 -137 -30 6 -1 52 -28 102 -60 51 -32 103 -62 117 -65 14 -4 25 -12 25 -19
0 -19 -63 -121 -112 -180 -77 -95 -253 -269 -290 -288 -49 -25 -63 -24 -87 9
l-20 27 -2 -30 c-1 -16 -2 -38 -1 -47 2 -25 -30 -23 -53 2 -18 20 -18 20 -32
-7 -8 -15 -12 -35 -10 -45 3 -11 -2 -20 -13 -23 -28 -9 -9 -60 42 -113 41 -42
45 -43 88 -38 54 6 137 41 204 84 28 18 57 32 66 32 9 0 35 -22 58 -49 53 -62
139 -106 194 -97 30 5 38 3 38 -9 0 -24 -38 -50 -73 -50 -27 0 -32 -4 -35 -27
-2 -16 -18 -39 -40 -58 -20 -17 -50 -44 -67 -59 -38 -35 -159 -105 -205 -119
-19 -6 -96 -33 -170 -61 -149 -57 -260 -77 -260 -48 0 14 -4 15 -27 4 -67 -29
-76 -49 -74 -161 l1 -59 59 6 c32 4 81 15 107 26 52 20 189 85 214 100 8 5 49
20 90 34 41 13 100 34 130 46 66 27 140 51 157 51 16 0 43 -42 47 -72 1 -12 8
-33 14 -44 6 -12 16 -43 22 -70 13 -56 48 -114 70 -114 8 1 32 16 53 35 l39
34 -6 128 c-8 152 -7 154 85 182 81 25 237 54 249 46 31 -19 56 -221 54 -427
-2 -134 -25 -219 -80 -298 -24 -35 -44 -69 -44 -75 0 -6 -10 -21 -22 -32 -13
-11 -52 -55 -88 -98 -36 -43 -77 -86 -93 -95 -27 -17 -27 -17 -7 -35 11 -10
20 -24 20 -32 0 -17 10 -16 78 3 144 42 281 139 329 233 10 20 26 45 36 57 23
27 34 128 33 314 -1 143 -20 274 -60 412 -14 46 -13 48 11 72 35 36 75 40 221
26 l127 -12 53 27 c58 29 67 58 20 63 -14 2 -34 12 -44 23 -9 10 -23 19 -30
19 -8 0 -43 10 -80 22 -65 21 -68 21 -129 5 -100 -27 -160 -23 -205 13 -44 35
-136 80 -165 80 -68 1 -46 59 60 164 67 66 85 89 83 109 -2 21 -9 27 -38 32
-49 8 -130 37 -130 46 0 12 -59 71 -113 114 -39 31 -59 39 -101 43 -39 3 -56
0 -68 -12 -9 -9 -24 -16 -32 -16 -13 0 -13 5 4 33 46 79 57 105 64 152 11 75
28 95 79 95 42 0 45 -3 237 -196 107 -108 209 -203 225 -211 17 -9 48 -31 70
-48 52 -43 142 -95 162 -95 9 0 33 -5 53 -11 31 -9 38 -16 38 -38 0 -15 -9
-33 -21 -43 -20 -15 -17 -16 54 -13 40 1 108 10 149 19 87 20 214 14 268 -11
28 -13 40 -14 73 -4 22 7 42 20 45 29 3 9 11 28 17 40 14 30 -2 44 -128 108
-49 26 -96 51 -103 57 -7 6 -59 12 -115 13 -56 2 -130 11 -165 19 -207 52
-448 184 -638 350 l-72 62 57 26 c31 14 73 33 93 41 20 9 40 21 43 27 4 5 15
7 24 4 10 -3 31 1 47 10 16 8 35 15 43 15 24 0 90 34 91 46 0 6 10 24 22 39
l21 27 -24 19 c-13 10 -31 19 -39 19 -9 0 -34 9 -55 20 -30 16 -66 22 -150 26
-130 6 -221 22 -205 38 5 5 10 17 10 26 0 8 11 36 25 62 45 84 34 108 -72 152
-72 30 -142 33 -190 10z m214 -311 c-3 -10 -5 -4 -5 12 0 17 2 24 5 18 2 -7 2
-21 0 -30z m-234 -663 c19 -16 39 -30 45 -30 15 0 19 -9 27 -62 6 -41 5 -48
-9 -48 -9 0 -49 -16 -89 -36 -56 -29 -182 -74 -205 -74 -2 0 16 22 41 50 25
27 66 90 91 140 26 49 51 90 56 90 5 0 25 -13 43 -30z m313 -490 c15 -22 25
-43 22 -45 -5 -5 -222 -55 -225 -52 -1 1 19 24 43 50 39 41 104 85 126 87 4 0
20 -18 34 -40z"/>
</g>
</svg>
